# xmcd
#
# Track frame offsets:
#	150
#	14123
#	36397
#	55435
#	84085
#	103749
#	117720
#	129676
#	148435
#	163384
#	177233
#
# Disc length: 2588 seconds
#
# Revision: 1
# Processed by: cddbd v1.5.2PL0 Copyright (c) Steve Scherf et al.
# Submitted via: audiograbber 1.83.01
#
DISCID=ad0a1a0b
DTITLE=Songs 4 Worship - Songs 4 Worship Volume 19 - Make A Joyful Noise  - DIS
DTITLE=C 2. 2003
DYEAR=2002
DGENRE=Worship and Praise
TTITLE0=The Integrity Worship Singers - Every Move I Make
TTITLE1=Jeffrey B. Scott - Forever
TTITLE2=The Praise Band - Sing A Joyful Song
TTITLE3=Lindell Cooley - We Will Ride
TTITLE4=The Integrity Worship Singers - Come Into The Holy Of Holies
TTITLE5=The Maranatha! Singers - Come Holy Spirit
TTITLE6=The Maranatha! Singers - Abba Father - Father God
TTITLE7=The Maranatha! Singers - We Worship You
TTITLE8=Don Moen - Let Your Glory Fall
TTITLE9=The Brentwood Singers - Sweet Sweet Spirit
TTITLE10=Ron Kenoly - We Will Wait
EXTD=
EXTT0=
EXTT1=
EXTT2=
EXTT3=
EXTT4=
EXTT5=
EXTT6=
EXTT7=
EXTT8=
EXTT9=
EXTT10=
PLAYORDER=
